# xmcd
#
# Track frame offsets:
#	150
#	18902
#	32693
#	49013
#	62202
#	77455
#	92681
#	109231
#	127159
#	151101
#	169672
#	192229
#	212290
#	222785
#
# Disc length: 3284 seconds
#
# Revision: 2
# Processed by: cddbd v1.5.1PL0 Copyright (c) Steve Scherf et al.
# Submitted via: audiograbber 1.83.01
#
DISCID=b00cd20e
DTITLE=Various Artist - SD103
DYEAR=1900
DGENRE=Karaoke
TTITLE0=Urban, Keith - Raining On Sunday
TTITLE1=Twain, Shania - Up
TTITLE2=Gentry, Montgomery - Speed
TTITLE3=Cochran, Tammy - Love Won't Let Me
TTITLE4=Tritt, Travis - You Can't Count Me Out Yet
TTITLE5=Travis, Randy - Three Wooden Crosses
TTITLE6=Andrews, Jessica - There's More To Me Than You
TTITLE7=Atkins, Rodney - My Old Man
TTITLE8=Cross Canadian Ragweed - 17
TTITLE9=Springsteen, Bruce - Lonesome Day
TTITLE10=Kid Rock and Crow, Sheryl (Duet) - Picture
TTITLE11=Tebey - We Shook Hands (Man To Man)
TTITLE12=Cook, Elizabeth - Stupid Things
TTITLE13=Mcgraw, Tim - Tiny Dancer
EXTD=
EXTT0=
EXTT1=
EXTT2=
EXTT3=
EXTT4=
EXTT5=
EXTT6=
EXTT7=
EXTT8=
EXTT9=
EXTT10=
EXTT11=
EXTT12=
EXTT13=
PLAYORDER=
